<svg width="15" height="13" viewBox="0 0 15 13" fill="none" xmlns="http://www.w3.org/2000/svg">
<path d="M14.945 2.10868C14.3947 2.34584 13.7971 2.5166 13.1805 2.58301C13.8161 2.20354 14.2999 1.60589 14.5276 0.894392C13.9394 1.2454 13.2753 1.50153 12.5828 1.63435C12.0231 1.03669 11.2262 0.666713 10.344 0.666713C8.64586 0.666713 7.27979 2.04227 7.27979 3.73089C7.27979 3.96805 7.30825 4.20522 7.35568 4.4329C4.81327 4.30008 2.54597 3.0858 1.0376 1.22642C0.771973 1.68178 0.620187 2.20354 0.620187 2.77274C0.620187 3.83524 1.16092 4.77441 1.98626 5.32464C1.48347 5.30566 1.00914 5.16336 0.601214 4.93569C0.601214 4.94517 0.601214 4.96415 0.601214 4.97363C0.601214 6.46303 1.65423 7.69629 3.05825 7.98089C2.80211 8.04729 2.527 8.08524 2.25188 8.08524C2.05266 8.08524 1.86293 8.06627 1.6732 8.03781C2.06215 9.25209 3.19106 10.1343 4.53816 10.1628C3.48514 10.9881 2.1665 11.472 0.734026 11.472C0.477888 11.472 0.240723 11.4625 -0.00592911 11.434C1.35066 12.3068 2.96338 12.8096 4.69943 12.8096C10.3345 12.8096 13.4176 8.14216 13.4176 4.09138C13.4176 3.95857 13.4176 3.82575 13.4081 3.69294C14.0058 3.25656 14.5276 2.71582 14.945 2.10868Z" fill="white"/>
</svg>
